<?xml version="1.0" standalone="no"?>
<!DOCTYPE svg PUBLIC "-//W3C//DTD SVG 20010904//EN"
 "http://www.w3.org/TR/2001/REC-SVG-20010904/DTD/svg10.dtd">
<svg version="1.0" xmlns="http://www.w3.org/2000/svg"
 width="112.000000pt" height="73.000000pt" viewBox="0 0 112.000000 73.000000"
 preserveAspectRatio="xMidYMid meet">

<g transform="translate(0.000000,73.000000) scale(0.100000,-0.100000)"
fill="#000000" stroke="none">
<path d="M0 370 l0 -360 50 0 50 0 1 143 1 142 26 -108 25 -107 37 0 37 0 26
103 25 102 1 -137 1 -137 268 0 c147 -1 272 3 278 7 26 17 34 56 34 156 l0
106 -85 0 -85 0 0 -70 0 -70 -65 0 -65 0 0 250 0 250 65 0 65 0 0 -70 0 -70
85 0 85 0 0 99 c0 110 -5 131 -29 131 -14 0 -16 -13 -13 -100 l3 -100 -45 0
-46 0 0 70 0 70 -105 0 -105 0 0 -280 0 -280 105 0 105 0 0 70 0 70 45 0 45 0
0 -99 c0 -81 -3 -100 -16 -105 -24 -9 -347 -7 -362 2 -10 7 -12 81 -10 346 l3
337 -80 -3 -79 -3 -40 -152 c-22 -84 -43 -153 -46 -153 -3 0 -23 70 -45 155
l-40 155 -52 0 -53 0 0 -360z"/>
</g>
</svg>
