<?xml version="1.0" standalone="no"?>
<!DOCTYPE svg PUBLIC "-//W3C//DTD SVG 20010904//EN"
 "http://www.w3.org/TR/2001/REC-SVG-20010904/DTD/svg10.dtd">
<svg version="1.0" xmlns="http://www.w3.org/2000/svg"
 width="737.000000pt" height="793.000000pt" viewBox="0 0 737.000000 793.000000"
 preserveAspectRatio="xMidYMid meet">
<metadata>
Created by potrace 1.16, written by Peter Selinger 2001-2019
</metadata>
<g transform="translate(0.000000,793.000000) scale(0.100000,-0.100000)"
fill="#000000" stroke="none">
<path d="M1217 7919 c-14 -8 -17 -18 -12 -37 4 -15 3 -24 0 -20 -9 9 -22 -5
-56 -57 -30 -46 -43 -79 -29 -70 5 3 26 -12 47 -33 21 -21 48 -44 61 -51 12
-6 22 -18 22 -25 0 -20 -35 -47 -53 -40 -19 7 -71 -41 -62 -56 3 -6 1 -10 -4
-10 -6 0 -11 9 -11 20 0 11 -4 20 -9 20 -5 0 -8 -11 -6 -25 3 -30 -17 -32 -92
-13 -53 14 -77 36 -62 55 17 19 6 104 -13 117 -34 21 -53 -4 -56 -76 -3 -62
-4 -66 -35 -82 -27 -15 -38 -16 -77 -5 -25 6 -88 13 -140 15 -100 3 -264 18
-365 34 -33 5 -106 11 -162 14 l-103 5 0 -39 c0 -37 2 -40 28 -40 15 0 85 -10
157 -21 72 -11 177 -22 235 -25 58 -2 128 -9 155 -14 28 -5 89 -9 137 -9 92 1
109 -6 120 -47 9 -37 -30 -47 -108 -29 -36 8 -100 15 -142 15 -41 0 -101 4
-131 10 -31 5 -117 14 -191 20 -74 6 -163 14 -197 17 l-63 6 0 -175 0 -175 97
-7 c199 -13 539 -49 688 -72 50 -7 135 -18 190 -24 100 -11 165 -27 165 -42 0
-11 -83 -45 -131 -53 -24 -4 -46 -11 -50 -16 -3 -5 -36 -10 -75 -12 -83 -4
-133 -29 -112 -56 7 -9 17 -19 22 -22 5 -4 6 -14 3 -23 -5 -12 -20 -16 -54
-16 -64 0 -420 28 -458 37 -16 3 -57 8 -90 10 -33 3 -90 7 -127 10 l-68 5 0
-416 0 -416 143 0 c78 0 160 -5 182 -11 62 -17 162 -30 255 -33 47 -2 95 -8
107 -13 14 -5 56 -4 104 1 99 12 360 -12 459 -43 45 -13 116 -22 232 -29 214
-11 238 -25 238 -137 0 -53 -14 -65 -114 -96 l-71 -22 -80 21 c-44 12 -89 24
-100 25 -11 2 -31 9 -44 16 -20 11 -29 10 -57 -5 -19 -10 -34 -26 -34 -36 0
-28 -22 -67 -42 -73 -22 -8 -23 -28 -2 -46 13 -10 17 -10 24 1 7 12 11 12 25
0 25 -20 44 -73 31 -82 -18 -12 -54 -9 -59 5 -4 8 -8 8 -14 2 -4 -5 -15 -11
-23 -13 -38 -7 -82 -36 -93 -59 -17 -37 10 -54 77 -47 71 7 78 8 106 23 34 19
40 30 33 62 -5 27 -4 27 52 34 31 4 89 3 128 -2 48 -7 80 -6 99 1 23 8 31 7
45 -7 17 -17 17 -19 -2 -33 -11 -8 -30 -17 -42 -20 -17 -5 -22 -12 -18 -28 20
-93 27 -207 24 -398 l-4 -217 43 -41 c57 -55 90 -123 98 -205 9 -91 20 -97
166 -96 62 1 128 6 147 12 54 18 272 7 305 -14 41 -27 51 -57 37 -112 -13 -52
-2 -85 29 -85 11 0 47 17 80 39 66 41 124 110 171 203 36 71 117 169 164 198
20 13 71 30 113 40 l77 17 -2 84 c-3 96 -32 320 -43 332 -4 5 -24 2 -44 -7
-39 -16 -58 -50 -49 -85 9 -33 -25 -64 -61 -57 -34 7 -52 28 -65 75 -8 28 -6
43 11 83 l20 48 -23 55 c-60 138 -80 126 -88 -53 -8 -162 -18 -182 -91 -182
-55 0 -62 7 -96 92 -11 26 -24 50 -31 52 -17 7 -55 -26 -87 -76 -25 -40 -31
-44 -59 -40 -42 6 -75 29 -93 64 -17 33 -37 59 -79 104 -46 49 -59 75 -56 119
1 23 -6 56 -18 77 -13 27 -17 50 -13 83 4 39 1 49 -21 71 -15 14 -32 39 -39
55 -11 25 -18 29 -53 29 -47 0 -85 23 -85 50 0 11 -20 42 -45 70 -55 62 -57
87 -10 129 59 51 134 41 199 -28 20 -20 36 -29 47 -26 31 10 96 -14 113 -40 9
-14 21 -23 27 -20 5 4 7 10 4 15 -8 14 76 27 115 18 19 -4 57 -8 84 -8 30 0
61 -7 80 -19 18 -11 57 -21 94 -23 l62 -4 0 45 c0 55 -21 163 -55 286 -24 88
-35 232 -16 221 4 -3 11 -38 14 -78 5 -74 33 -162 47 -153 21 13 29 169 11
203 -6 10 -24 26 -41 34 l-30 15 21 26 c25 32 55 34 84 7 18 -17 27 -19 48
-11 15 6 27 16 27 22 0 8 4 9 13 0 8 -6 16 -9 19 -6 2 3 15 -15 27 -40 24 -49
32 -56 26 -25 -12 62 78 -25 95 -92 41 -157 56 -204 74 -232 42 -63 191 -108
362 -110 63 0 70 -2 53 -14 -24 -17 -16 -32 17 -32 15 0 23 4 19 10 -4 6 6 9
26 8 18 -2 34 2 36 9 3 9 -4 11 -25 7 -17 -4 -32 -1 -36 5 -5 7 3 11 21 11 34
0 204 46 212 57 37 51 67 108 97 185 53 133 79 157 109 99 38 -74 62 -184 70
-316 1 -33 8 -73 14 -88 16 -42 14 -67 -6 -67 -16 -1 -16 -2 -2 -10 15 -9 15
-13 -4 -51 -17 -35 -19 -47 -9 -72 l11 -29 -33 5 c-19 3 -39 0 -45 -6 -7 -7
-11 -7 -11 -1 0 13 -34 11 -52 -2 -7 -6 -44 -10 -83 -9 -55 1 -73 -3 -83 -16
-8 -12 -38 -22 -87 -30 -47 -7 -80 -18 -91 -30 -9 -10 -23 -15 -31 -12 -10 4
-14 2 -11 -7 2 -7 -11 -29 -29 -48 -18 -19 -36 -46 -39 -59 -4 -12 -11 -23
-16 -23 -6 0 -4 -7 3 -16 11 -14 11 -18 -3 -28 -9 -7 -15 -23 -13 -40 3 -28
15 -50 15 -28 0 7 5 12 10 12 6 0 8 -10 4 -24 -10 -39 4 -68 29 -62 12 3 16 3
10 0 -7 -3 -13 -10 -13 -15 0 -16 31 -10 57 11 14 11 32 20 39 20 7 0 21 14
29 31 12 23 21 29 36 24 12 -4 21 -1 25 9 7 19 89 23 100 5 3 -6 15 -9 25 -6
12 3 19 0 19 -9 0 -17 12 -18 29 -1 11 10 12 7 7 -18 -14 -59 -12 -70 11 -73
32 -5 37 -31 10 -56 -13 -12 -23 -32 -22 -44 2 -26 39 -69 67 -78 13 -4 16
-10 10 -17 -15 -19 -22 -60 -13 -71 10 -12 14 -51 12 -101 l-1 -30 -17 34
c-19 38 -63 90 -63 74 0 -5 -18 -16 -39 -23 -22 -7 -45 -23 -52 -36 -9 -17
-25 -26 -51 -31 -25 -3 -37 -10 -34 -18 2 -6 0 -18 -5 -26 -7 -11 -9 -11 -9 3
0 11 -5 15 -15 12 -20 -8 -19 6 3 22 16 13 16 13 -2 14 -16 0 -17 3 -8 12 17
17 15 29 -3 22 -11 -4 -15 0 -15 16 0 16 -5 21 -22 20 -13 -1 -34 -1 -48 0
l-25 1 25 12 25 11 -29 4 c-30 4 -76 -14 -76 -30 0 -4 9 -8 19 -8 30 0 35 -19
6 -26 -32 -8 -32 -17 3 -31 23 -9 24 -11 6 -12 -21 -1 -94 70 -94 90 0 5 -10
9 -22 9 -21 0 -20 -3 15 -36 53 -51 48 -77 -7 -33 -16 12 -26 16 -26 8 0 -6
-14 6 -31 27 -32 41 -57 60 -66 50 -17 -17 349 -336 385 -336 6 0 17 -6 24
-13 7 -8 38 -22 68 -31 93 -30 131 -49 126 -63 -3 -7 -2 -13 2 -13 17 0 74
-62 68 -75 -3 -8 3 -19 12 -24 15 -9 13 -10 -8 -11 l-25 -1 23 -19 c18 -15 24
-31 26 -68 1 -26 6 -55 11 -63 5 -7 11 -36 13 -64 2 -27 8 -54 13 -60 13 -13
11 -53 -3 -58 -8 -3 -6 -6 5 -6 21 -1 23 -19 2 -27 -8 -4 -15 -15 -15 -26 0
-10 -6 -18 -12 -17 -28 3 -35 -2 -35 -31 0 -16 3 -30 6 -30 10 0 6 -43 -6 -65
-6 -11 -31 -35 -56 -53 -36 -25 -46 -29 -51 -17 -11 28 -29 16 -22 -15 7 -35
-1 -40 -13 -8 -7 20 -11 17 -35 -35 -22 -45 -35 -61 -63 -72 -37 -16 -61 -20
-50 -9 10 10 -13 45 -27 42 -18 -4 -96 35 -93 47 4 13 -41 49 -63 50 -9 1 -23
7 -31 13 -35 28 -83 69 -100 85 -10 9 -22 16 -26 15 -5 -2 -12 7 -18 20 -5 12
-18 22 -27 22 -10 0 -18 7 -18 17 0 9 -3 13 -6 10 -8 -7 -44 36 -44 52 0 5 -6
14 -14 18 -19 11 -78 142 -72 159 3 7 2 15 -2 18 -4 3 -9 22 -10 42 -2 21 -7
43 -12 49 -27 33 -12 195 23 246 23 31 24 124 2 115 -8 -3 -15 -2 -15 3 0 9
-43 20 -90 24 -20 2 -29 -7 -53 -58 -33 -67 -56 -152 -57 -206 -1 -86 61 -258
132 -367 33 -52 200 -219 272 -273 25 -19 52 -49 61 -67 22 -44 51 -61 137
-79 82 -17 118 -33 235 -109 129 -83 216 -172 269 -277 l20 -37 77 84 c42 47
77 88 77 93 0 4 -5 1 -10 -7 -9 -13 -11 -13 -20 0 -5 8 -8 21 -5 28 2 6 -2 12
-9 12 -14 0 -26 21 -26 46 0 9 4 13 9 10 18 -11 18 31 0 53 -11 13 -19 29 -19
37 0 17 -12 18 -28 2 -9 -9 -12 -2 -12 31 l0 43 20 -23 c17 -21 21 -22 30 -9
8 13 10 13 10 -2 0 -10 5 -18 10 -18 14 0 13 27 -1 36 -8 4 -4 11 12 19 32 17
43 14 73 -22 25 -29 25 -32 9 -42 -10 -6 -12 -11 -5 -11 6 0 12 -9 12 -19 0
-11 5 -23 10 -26 6 -3 10 0 10 7 0 25 21 38 43 26 20 -10 20 -11 2 -24 -14
-11 -15 -14 -4 -15 8 -1 19 0 24 1 31 7 54 6 49 -1 -7 -13 13 -11 39 2 61 32
385 272 394 291 6 13 38 57 72 98 34 41 74 91 90 110 53 66 140 215 171 294
35 86 57 254 39 287 -5 10 -9 27 -9 37 0 15 5 19 20 15 11 -3 20 -13 20 -22 0
-22 37 -45 43 -28 3 7 6 2 6 -10 1 -13 -3 -23 -8 -23 -5 0 -7 -9 -4 -20 3 -10
10 -18 16 -17 6 1 17 -19 23 -45 19 -74 32 -85 49 -46 19 43 57 52 263 59 182
6 194 8 217 29 13 12 25 32 27 44 2 12 11 22 24 24 16 2 25 -9 48 -60 15 -35
32 -71 37 -81 5 -10 9 -47 7 -82 -3 -92 11 -105 112 -105 96 0 102 8 98 129
-3 80 -2 84 24 104 23 17 48 21 166 27 76 4 147 12 159 18 12 7 32 31 45 54
27 50 92 86 169 95 41 5 55 2 79 -15 l29 -22 63 21 c35 11 73 17 86 14 15 -4
52 7 103 31 l81 36 23 -22 c24 -23 55 -102 55 -142 0 -39 -27 -153 -41 -177
-12 -20 -20 -22 -62 -17 -27 3 -62 12 -79 21 -44 21 -53 19 -105 -20 l-46 -35
-111 0 c-76 -1 -119 -5 -136 -15 -24 -13 -24 -14 -5 -21 11 -4 26 -14 33 -21
17 -17 45 -16 112 1 30 8 56 11 58 6 2 -5 14 -4 27 2 31 14 55 0 80 -49 23
-42 20 -42 153 -27 52 5 66 4 82 -11 24 -22 26 -67 4 -105 -16 -27 -16 -29 7
-61 20 -28 25 -49 27 -114 3 -59 0 -85 -11 -100 -14 -19 -17 -19 -103 -3 -239
44 -587 130 -654 161 l-35 17 33 -6 c22 -4 41 0 59 11 25 17 25 18 8 31 -10 7
-21 11 -25 9 -4 -2 -43 -5 -88 -6 -45 -1 -79 -6 -76 -10 3 -5 0 -9 -5 -9 -19
0 -305 59 -361 75 -116 32 -155 12 -245 -120 -19 -27 -45 -63 -60 -80 -24 -28
-26 -28 -19 -6 4 18 3 22 -7 16 -9 -6 -10 -4 -6 8 4 10 10 25 13 35 5 14 4 15
-5 2 -8 -12 -11 -3 -11 36 0 28 -6 67 -14 85 -8 19 -12 49 -10 67 3 27 0 32
-17 32 -12 0 -17 -4 -13 -11 3 -6 12 -83 20 -171 12 -144 12 -164 -3 -192 -9
-17 -19 -33 -23 -36 -6 -5 -126 -186 -224 -340 -26 -41 -77 -120 -112 -175
-98 -152 -172 -291 -462 -870 -197 -394 -255 -513 -318 -655 -36 -82 -456
-916 -483 -961 l-21 -34 4 43 c2 30 -1 45 -10 49 -8 3 -14 9 -14 14 0 10 -75
174 -91 199 -5 8 -12 22 -15 30 -3 8 -10 22 -15 30 -5 8 -12 22 -15 30 -15 38
-27 66 -35 80 -13 23 -46 93 -54 115 -10 25 -10 25 -19 57 -4 15 -15 29 -23
32 -11 4 -13 14 -9 31 5 19 1 31 -17 48 -13 12 -34 51 -47 87 -13 36 -39 90
-56 120 -18 30 -40 71 -49 90 -9 19 -23 47 -31 62 -8 14 -14 32 -14 40 0 7 -9
31 -21 52 -11 21 -18 41 -15 43 3 3 -3 18 -14 33 -11 16 -20 32 -20 37 0 4 -9
26 -19 48 -50 103 -91 192 -91 198 0 4 -11 31 -25 61 -14 30 -25 57 -25 60 0
2 -20 47 -44 98 -24 51 -50 108 -57 125 -8 18 -17 33 -21 33 -5 0 -8 7 -8 15
0 8 -4 15 -10 15 -5 0 -10 8 -10 18 0 10 -9 28 -20 40 -11 12 -20 25 -20 29 0
4 -18 42 -39 83 -62 118 -211 420 -211 426 0 3 -7 13 -16 22 -15 14 -15 17 0
28 14 10 12 12 -14 17 -16 4 -37 15 -45 24 -24 28 -155 311 -170 368 -31 114
-81 223 -120 266 -22 24 -50 60 -62 79 -37 60 -53 64 -130 34 -38 -14 -106
-39 -152 -55 -46 -16 -166 -61 -266 -99 -100 -38 -211 -76 -247 -84 -36 -8
-112 -33 -169 -54 -57 -22 -127 -45 -155 -51 -47 -11 -56 -10 -92 8 -22 11
-65 24 -94 27 -29 4 -61 10 -70 15 -19 10 -640 5 -775 -7 l-83 -7 0 -937 0
-938 80 -7 c58 -5 80 -11 80 -21 0 -10 -12 -14 -40 -14 -22 0 -40 -4 -40 -10
0 -5 -18 -10 -40 -10 l-40 0 0 -126 0 -126 80 7 c69 6 80 5 80 -8 0 -11 -12
-17 -43 -20 l-42 -4 43 -1 c38 -2 42 -5 42 -27 0 -22 -4 -25 -40 -25 -33 0
-40 -3 -40 -20 0 -17 -7 -20 -40 -20 l-40 0 0 -45 0 -45 40 0 c29 0 40 4 40
16 0 13 15 15 90 13 80 -1 112 -10 78 -21 -6 -2 -8 -10 -4 -17 9 -14 49 64 61
118 6 30 -7 44 -19 19 -4 -9 -5 -8 -5 2 3 39 -1 45 -16 26 -11 -14 -15 -16
-15 -5 0 8 -3 24 -6 37 -6 20 -3 22 34 22 23 0 42 -5 45 -12 2 -7 7 3 12 22 4
19 16 52 26 72 26 51 24 58 -6 18 -16 -22 -25 -28 -25 -18 0 9 5 20 10 23 6 3
10 26 10 51 0 26 5 44 11 44 7 0 9 -11 6 -30 -4 -16 -3 -30 1 -30 11 0 33 55
37 97 2 21 2 30 -1 21 -11 -34 -38 -13 -39 29 -1 13 6 25 16 28 10 3 20 18 22
33 3 21 5 18 6 -13 3 -41 15 18 41 200 60 425 91 577 162 790 46 138 76 201
88 189 13 -14 175 -439 330 -869 151 -418 290 -774 373 -955 14 -31 35 -79 46
-107 20 -52 124 -268 291 -608 77 -156 128 -267 218 -477 l21 -48 1990 0 1991
0 4 23 c16 74 16 96 3 104 -16 9 -30 90 -17 98 4 2 6 45 5 95 -2 61 1 90 9 90
8 0 8 3 0 8 -6 4 -7 18 -4 32 l7 25 15 -32 14 -32 0 56 c0 42 -2 50 -8 33 -5
-13 -11 -20 -14 -17 -8 7 26 77 38 77 5 0 3 6 -4 14 -11 11 -17 6 -35 -33 -13
-25 -23 -53 -23 -61 0 -9 -9 -23 -20 -33 -11 -9 -20 -23 -20 -30 0 -16 -39
-97 -40 -82 0 16 33 99 47 116 7 8 13 19 13 23 0 19 83 179 87 168 4 -10 9 -8
19 5 13 17 14 16 12 -12 -1 -16 -6 -36 -11 -42 -9 -12 8 -18 36 -14 4 0 7 -6
7 -14 0 -8 -9 -15 -20 -15 -11 0 -20 -7 -20 -16 0 -10 6 -13 19 -9 16 5 19 -3
26 -62 4 -38 9 -102 10 -143 1 -41 7 -102 13 -135 16 -83 15 -101 -8 -123 -18
-17 -19 -21 -5 -32 8 -7 12 -16 9 -21 -3 -5 263 -9 630 -9 l636 0 0 585 0 584
-92 -47 c-51 -26 -112 -55 -136 -66 -66 -28 -253 -86 -277 -86 -11 0 -25 -4
-31 -10 -11 -11 -165 -42 -172 -35 -3 3 -2 5 3 5 4 0 0 9 -9 19 -16 18 -16 20
8 46 15 16 26 38 26 50 0 13 7 28 15 35 9 7 13 21 10 31 -4 13 -1 19 9 19 19
0 21 23 4 50 -11 17 -10 22 0 29 8 4 13 11 13 15 -4 26 3 37 31 50 17 9 37 16
44 16 6 0 47 18 90 40 43 22 84 40 91 40 7 0 13 5 13 10 0 6 6 10 14 10 20 0
104 39 112 51 8 14 -32 3 -63 -17 -12 -8 -29 -14 -36 -14 -8 0 -31 -12 -53
-26 -30 -21 -46 -25 -76 -21 -26 3 -41 1 -46 -8 -9 -17 -62 -31 -62 -17 0 6 4
13 9 17 5 3 13 20 16 38 8 36 42 96 65 114 8 7 11 13 6 13 -5 0 -1 9 8 19 10
11 20 37 23 58 4 25 16 48 35 67 22 20 27 31 18 36 -9 6 -6 19 14 52 14 25 26
53 26 62 0 13 5 16 16 12 14 -6 16 -1 10 35 -5 32 -3 44 10 54 17 12 12 35 -7
35 -6 0 -46 -36 -90 -80 -43 -44 -83 -80 -89 -80 -12 0 -1 31 29 80 31 53 61
109 61 115 0 22 -37 -9 -110 -91 -82 -92 -147 -151 -156 -142 -2 3 8 18 23 34
89 95 333 512 333 568 0 9 7 33 16 54 13 31 28 82 60 207 11 42 16 106 9 123
-4 9 -9 55 -11 101 -2 50 -9 93 -18 106 -13 19 -12 28 8 76 12 30 27 63 33 73
10 19 11 19 21 -1 35 -64 124 -307 156 -423 21 -74 39 -139 41 -145 2 -5 4
246 4 558 1 446 -2 568 -11 571 -7 3 -33 10 -58 18 -39 11 -47 18 -57 50 -7
20 -13 77 -15 127 -3 82 -1 91 21 114 13 15 44 31 72 37 l50 12 -3 150 -3 151
-28 3 c-39 4 -73 28 -94 67 -14 25 -18 63 -21 175 -4 158 1 179 56 201 19 8
33 23 37 39 4 15 17 41 31 59 l24 31 0 1521 0 1521 -21 0 c-11 0 -34 -9 -50
-21 -35 -25 -85 -23 -81 4 3 16 -137 17 -2818 17 -2701 0 -2820 -1 -2820 -18
0 -10 -10 -45 -23 -77 -17 -45 -29 -61 -45 -63 -18 -3 -22 1 -22 25 0 15 7 52
14 81 l14 52 -141 0 c-82 0 -150 -5 -160 -11z m923 -27 c133 -1 216 -9 415
-37 55 -8 151 -19 213 -25 62 -6 145 -15 185 -21 39 -5 101 -12 137 -15 112
-9 201 -25 194 -36 -4 -6 1 -8 15 -3 11 3 21 5 21 3 0 -2 -45 -35 -101 -73
-55 -39 -122 -86 -148 -107 -25 -20 -62 -43 -81 -52 -23 -10 -26 -14 -10 -10
24 6 24 6 5 -10 -11 -8 -31 -16 -45 -16 -14 -1 -19 -4 -12 -7 20 -8 14 -24
-39 -94 -59 -77 -80 -85 -169 -69 -30 6 -111 15 -179 20 -68 6 -140 14 -160
19 -20 5 -88 14 -151 21 -204 20 -302 39 -342 66 -21 13 -38 31 -38 40 0 9 -5
12 -11 8 -14 -8 -29 14 -29 45 0 21 3 23 35 17 32 -6 36 -4 45 20 6 16 16 24
24 21 8 -3 24 5 37 19 12 13 28 24 36 24 17 0 17 27 1 33 -13 4 -10 15 23 79
5 10 9 36 9 58 0 25 5 40 13 40 6 0 3 6 -8 12 -22 13 -35 28 -35 43 0 6 3 5 8
-1 4 -7 56 -11 142 -12z m1208 -247 c-3 -14 1 -30 8 -36 10 -8 14 -8 14 0 0 6
7 11 15 11 8 0 15 -7 15 -15 0 -8 -7 -15 -15 -15 -8 0 -15 -4 -15 -10 0 -5 -7
-10 -15 -10 -8 0 -15 -4 -15 -10 0 -13 12 -13 44 0 17 6 26 6 26 0 0 -6 11
-10 24 -10 17 0 27 9 36 30 7 17 17 30 22 30 5 0 7 -4 4 -8 -2 -4 4 -14 15
-20 19 -12 20 -11 14 21 -4 21 -3 37 4 41 7 5 11 -3 11 -19 0 -43 17 -63 60
-70 22 -4 44 -14 50 -23 7 -13 11 -14 18 -4 6 9 14 3 28 -23 10 -19 24 -35 31
-35 7 0 16 -12 19 -26 5 -19 9 -22 15 -13 4 7 11 10 15 6 4 -3 1 -13 -6 -22
-10 -12 -10 -15 4 -15 10 0 14 -5 11 -11 -4 -6 -13 -8 -20 -5 -8 3 -12 -4 -12
-18 0 -19 4 -22 31 -18 28 5 30 3 17 -12 -11 -13 -11 -16 0 -16 10 0 10 -3 1
-12 -7 -7 -12 -36 -12 -65 0 -43 4 -54 21 -64 17 -9 23 -8 30 2 6 11 14 8 33
-11 28 -25 34 -58 14 -78 -9 -9 -8 -15 5 -25 15 -10 16 -15 4 -31 -21 -29 -57
-13 -57 25 0 38 -24 85 -51 100 -28 15 -36 4 -15 -20 17 -18 17 -20 -4 -41
-16 -16 -25 -19 -33 -11 -17 17 -22 13 -23 -19 -1 -24 3 -30 19 -30 14 0 17
-5 13 -17 -4 -9 -1 -20 5 -24 8 -5 -1 -10 -23 -14 -33 -6 -35 -8 -24 -31 6
-13 14 -24 19 -24 4 0 2 -10 -5 -21 -11 -18 -11 -23 1 -27 9 -3 10 -6 2 -12
-17 -10 -2 -40 20 -40 24 0 24 -9 2 -26 -16 -12 -16 -13 -2 -14 9 0 20 -7 23
-16 3 -8 2 -13 -2 -10 -5 3 -8 -11 -8 -29 1 -19 4 -35 8 -35 4 0 12 -9 18 -19
10 -20 -10 -77 -23 -64 -4 3 -7 1 -7 -5 0 -7 -9 -12 -20 -12 -13 0 -20 7 -20
20 0 20 -11 26 -23 14 -4 -4 -48 -5 -99 -4 -51 2 -105 4 -120 4 -16 1 -28 4
-28 7 0 3 -44 7 -97 8 -54 1 -102 6 -107 11 -14 14 -123 13 -148 -1 -62 -33
-149 -145 -160 -204 -2 -16 -12 -21 -47 -23 -64 -5 -65 -2 -75 133 -11 141
-25 214 -27 134 0 -28 -2 -30 -9 -14 -8 19 -3 141 7 157 2 4 -1 16 -7 27 -6
12 -6 22 -1 26 5 3 12 -3 14 -12 3 -10 3 9 0 42 -5 60 10 174 25 184 4 3 18
33 31 66 13 33 32 72 43 87 10 14 18 30 18 35 0 17 167 186 178 179 6 -3 26 3
44 14 18 11 30 20 26 20 -14 0 70 78 91 85 16 5 21 2 21 -12 1 -17 1 -17 14 0
16 20 29 21 56 5 10 -7 22 -9 26 -5 9 9 -25 47 -43 47 -8 0 -11 5 -8 10 4 6
10 8 15 5 4 -3 10 2 14 10 9 24 19 17 14 -10z m1457 -16 c127 -11 262 -21 300
-23 277 -12 699 -58 710 -77 6 -9 -45 -49 -90 -71 -16 -9 -61 -21 -100 -27
-38 -6 -95 -16 -125 -21 -30 -5 -84 -12 -119 -15 -48 -4 -68 -10 -78 -24 -7
-11 -26 -22 -43 -26 -16 -4 -32 -11 -35 -16 -4 -5 -18 -9 -33 -9 -34 0 -44 -8
-60 -43 -8 -19 -26 -34 -52 -44 -22 -9 -40 -19 -40 -23 0 -12 -88 -31 -139
-30 -24 0 -84 39 -108 70 -7 8 -20 31 -29 50 -20 42 -44 71 -54 65 -4 -2 -22
15 -41 38 -19 23 -73 80 -121 127 -49 47 -88 91 -88 97 0 28 48 28 345 2z
m1513 -137 c13 -4 24 -11 24 -17 2 -12 -126 -77 -197 -101 -27 -9 -79 -32
-114 -50 -62 -33 -142 -46 -155 -26 -8 13 43 63 75 74 16 5 29 14 29 19 0 5 7
9 15 9 25 0 115 49 122 66 3 9 15 20 27 24 24 10 140 11 174 2z m-470 -211
c21 -13 1 -25 -219 -138 -97 -49 -135 -64 -154 -59 -14 4 -25 12 -25 20 0 23
39 49 178 118 133 66 187 80 220 59z m-466 -223 c14 -11 24 -70 19 -115 -2
-21 -21 -15 -21 6 0 12 -7 19 -17 19 -10 0 -22 0 -28 2 -25 6 -30 -3 -27 -50
4 -46 1 -53 -29 -81 -30 -28 -64 -36 -64 -14 0 6 -6 29 -14 52 -22 66 -8 98
68 149 67 46 87 52 113 32z m-3442 -168 c301 -20 533 -48 624 -76 18 -6 18 -6
-1 -18 -11 -6 -35 -21 -54 -33 -30 -21 -46 -23 -149 -23 -121 1 -223 9 -430
34 -69 9 -157 16 -195 16 -84 0 -130 12 -161 41 -19 17 -21 26 -13 41 6 11 13
17 16 14 3 -3 15 2 27 10 17 13 38 15 111 9 50 -3 151 -10 225 -15z m1970
-111 c0 -10 4 -19 9 -19 4 0 6 11 3 25 -8 45 28 25 42 -22 6 -19 4 -23 -14
-23 -31 0 -14 -20 18 -21 24 -2 24 -2 5 -6 -26 -5 -27 -7 -13 -33 7 -13 7 -21
0 -25 -5 -3 -10 -15 -10 -27 0 -14 -5 -18 -15 -14 -9 3 -15 -1 -15 -11 0 -12
-3 -13 -13 -4 -8 6 -17 8 -20 4 -7 -6 -10 30 -11 107 -1 27 -5 35 -18 34 -10
-1 -18 4 -18 12 0 8 6 11 15 8 10 -4 18 3 25 21 11 29 30 25 30 -6z m1082
-151 c10 -4 22 -18 28 -29 19 -35 -9 -179 -35 -179 -19 0 -45 28 -45 49 0 22
-35 55 -49 47 -15 -10 -37 72 -24 92 23 38 74 46 125 20z m356 -184 c35 -28
37 -36 17 -114 -5 -21 -1 -28 25 -42 19 -11 53 -18 83 -18 57 0 79 -14 129
-81 l27 -36 63 10 c35 5 65 12 68 17 10 15 49 30 64 24 20 -8 20 -12 1 -47
-11 -22 -12 -33 -3 -52 13 -30 29 -32 52 -6 19 21 87 41 141 41 19 0 62 11 93
24 47 20 66 23 96 16 39 -9 146 -75 146 -91 0 -7 -28 -36 -64 -66 -8 -7 -22
-13 -30 -13 -18 0 -26 -22 -19 -50 5 -18 -5 -32 -44 -69 -47 -43 -51 -51 -62
-116 -17 -103 -27 -122 -66 -129 -49 -10 -59 -29 -66 -130 -9 -127 -29 -342
-37 -396 -6 -40 -10 -45 -34 -48 -24 -3 -30 2 -44 37 -16 41 -22 45 -57 41
-23 -2 -67 26 -67 43 0 11 -20 34 -81 90 -21 19 -28 37 -34 88 -5 35 -7 80 -6
100 1 24 -5 41 -17 52 -18 16 -19 16 -31 -10 -33 -69 -40 -77 -86 -91 -47 -15
-47 -16 -40 -51 13 -65 11 -174 -3 -179 -7 -2 -34 -18 -60 -36 -26 -17 -60
-38 -76 -46 -16 -8 -35 -28 -42 -45 -8 -18 -13 -23 -14 -12 0 9 -4 17 -10 17
-5 0 -9 3 -8 8 1 4 -4 21 -11 37 -8 18 -12 69 -12 126 1 63 -3 112 -14 141
-12 36 -15 93 -14 271 1 271 -5 258 121 261 125 4 194 16 219 39 21 19 21 21
3 34 -23 17 -36 16 -78 -4 -33 -15 -38 -15 -75 2 -26 11 -51 15 -70 11 -17 -3
-44 -9 -61 -12 -63 -13 -129 97 -115 190 9 60 35 128 59 154 l21 23 16 -20
c10 -12 27 -21 38 -21 20 0 21 1 5 25 -9 13 -24 27 -35 30 -27 9 -24 51 6 80
31 32 50 31 93 -1z m-2081 -53 c-10 -4 -19 -11 -19 -16 0 -6 -17 -18 -38 -27
-23 -11 -50 -36 -69 -65 l-31 -47 21 -12 c12 -6 30 -9 40 -7 9 3 34 -7 55 -21
21 -14 46 -26 56 -26 9 0 20 -4 23 -10 3 -5 1 -10 -6 -10 -19 0 2 -17 26 -22
19 -5 18 -6 -5 -17 -65 -31 -72 -37 -55 -51 10 -8 15 -9 15 -1 0 6 17 11 43
10 l42 -1 -30 -14 -30 -15 36 3 c30 3 35 0 37 -19 1 -13 -3 -23 -8 -23 -6 0
-10 -7 -10 -15 0 -8 5 -15 10 -15 6 0 10 -7 10 -16 0 -9 6 -14 13 -11 6 2 11
14 9 27 -2 19 2 22 23 18 17 -4 25 -1 25 8 0 8 8 14 19 14 10 0 21 9 24 20 3
12 14 20 26 20 12 0 21 5 21 10 0 6 7 10 15 10 9 0 18 7 21 15 4 8 14 15 24
15 10 0 21 8 25 18 7 16 8 15 15 -3 8 -19 8 -19 18 5 11 25 11 25 11 -6 1 -17
-6 -48 -14 -67 -20 -48 -19 -71 2 -29 8 18 18 31 20 28 2 -2 -5 -22 -16 -44
-49 -97 -143 -132 -352 -132 -159 0 -227 18 -284 75 -54 54 -79 131 -80 245 0
92 21 148 51 136 8 -3 13 -2 10 3 -18 29 106 67 224 69 32 0 47 -2 37 -7z
m3522 -230 c38 -38 53 -80 45 -124 -11 -65 -5 -109 19 -135 28 -30 69 -52 98
-52 55 0 77 -65 38 -114 -25 -32 -56 -34 -68 -3 -5 12 -15 37 -21 55 -7 18
-15 30 -18 28 -3 -3 -22 9 -42 27 -21 17 -49 39 -62 48 -12 9 -31 39 -41 65
-10 27 -23 57 -28 67 -6 10 -13 40 -16 66 -5 43 -3 50 22 69 34 27 49 28 74 3z
m-1790 -89 c-2 -17 6 -41 21 -62 19 -27 25 -47 25 -91 0 -32 -6 -63 -14 -72
-15 -18 -11 -110 8 -192 15 -63 6 -149 -19 -185 -11 -15 -34 -33 -52 -41 -18
-7 -44 -21 -57 -31 -33 -25 -53 -23 -85 11 -34 35 -46 119 -22 144 24 23 96
170 96 195 0 12 4 22 9 22 15 0 23 32 27 110 3 61 31 178 51 213 9 15 14 6 12
-21z m-3095 -897 c15 -14 31 -25 36 -25 12 0 30 -66 30 -111 0 -20 -10 -58
-21 -84 -16 -36 -20 -59 -15 -92 7 -53 -12 -76 -74 -93 -55 -15 -73 -10 -84
23 -15 40 8 260 32 322 11 28 23 58 26 68 8 24 39 21 70 -8z m5107 -37 c11
-21 15 -206 4 -216 -11 -11 -67 23 -80 49 -27 50 -12 136 28 172 26 22 34 22
48 -5z m-1976 -34 c35 -36 49 -78 47 -149 -2 -85 -17 -132 -43 -140 -26 -9
-150 51 -144 68 6 18 15 64 25 132 4 33 11 68 15 77 12 29 75 37 100 12z m811
-129 c9 -8 18 -31 21 -51 5 -33 8 -35 33 -31 30 6 56 -16 65 -55 7 -34 -26
-67 -75 -74 -8 -1 -23 -5 -32 -9 -16 -6 -18 -1 -18 38 0 25 5 49 10 52 19 12
10 23 -25 35 -41 13 -55 48 -35 86 15 27 35 31 56 9z m-637 -2279 l32 -24 -31
1 c-39 2 -17 40 -271 -474 -217 -441 -232 -484 -224 -613 16 -233 150 -424
377 -535 280 -138 580 -100 773 96 44 45 70 87 121 190 35 73 64 134 64 137 0
3 24 56 54 118 54 114 83 178 129 278 74 164 129 270 138 265 5 -4 7 -9 5 -13
-7 -12 -156 -324 -156 -328 0 -3 -48 -106 -126 -271 -19 -39 -34 -74 -34 -77
0 -20 -126 -256 -155 -292 -72 -87 -191 -160 -320 -195 -70 -19 -265 -17 -335
3 -244 71 -421 216 -516 421 -45 100 -58 267 -30 378 8 31 100 226 204 435
104 208 204 412 222 452 18 39 36 72 40 72 3 0 21 -11 39 -24z m122 -120 c146
-69 246 -116 384 -178 61 -28 133 -61 160 -74 107 -49 396 -174 404 -174 5 0
14 -6 20 -14 10 -11 5 -30 -22 -88 -33 -69 -104 -219 -167 -353 -45 -95 -123
-263 -161 -345 -53 -118 -88 -165 -170 -231 -128 -104 -328 -142 -519 -97 -71
17 -208 84 -264 130 -185 151 -275 388 -222 583 7 28 91 208 186 400 95 193
188 383 206 423 19 39 39 72 43 72 5 0 60 -24 122 -54z m935 -1407 c-9 -18
-16 -39 -16 -47 0 -9 -6 -23 -13 -31 -13 -16 -47 -98 -47 -115 0 -5 7 -3 15 4
8 7 15 9 15 4 0 -5 4 -3 9 4 6 11 9 9 13 -6 4 -15 2 -19 -8 -15 -11 4 -14 -5
-14 -39 0 -39 -3 -45 -30 -55 -25 -9 -31 -9 -39 4 -7 13 -9 13 -14 -1 -4 -9
-3 -15 1 -14 17 3 42 -16 42 -32 0 -10 5 -20 12 -22 6 -2 0 -15 -15 -31 -18
-17 -27 -21 -27 -12 0 8 -4 15 -10 15 -14 0 -13 -23 2 -38 21 -21 -2 -13 -24
8 -28 26 -43 20 -41 -16 0 -16 -1 -23 -4 -16 -2 6 -9 10 -14 6 -5 -3 -9 -3 -9
0 0 8 77 179 145 321 31 66 61 131 66 144 5 13 12 21 15 18 3 -3 -1 -20 -10
-38z"/>
<path d="M5207 2237 c-43 -89 -111 -229 -151 -312 -89 -185 -101 -223 -93
-321 17 -221 211 -394 443 -394 178 0 314 95 396 279 30 67 52 113 160 341 33
69 69 147 79 173 l19 48 -47 20 c-57 24 -82 35 -188 85 -44 20 -136 62 -205
94 -69 31 -167 78 -217 104 -51 25 -98 46 -105 45 -7 0 -48 -73 -91 -162z
m168 -275 c-4 -15 -12 -30 -18 -34 -7 -4 -9 -8 -5 -8 12 0 -57 -118 -76 -132
-6 -4 -7 -10 -4 -14 11 -10 -29 -82 -53 -94 -15 -9 -18 -15 -10 -24 6 -7 8
-16 4 -19 -3 -4 2 -7 11 -7 12 0 16 5 12 15 -7 19 2 19 45 -1 55 -25 64 -31
62 -43 -2 -6 1 -11 7 -11 6 0 10 4 10 10 0 5 29 -5 64 -23 36 -17 62 -36 59
-41 -4 -5 1 -7 10 -3 15 6 98 -30 105 -45 2 -5 10 -8 18 -8 9 0 13 -4 10 -9
-3 -5 -41 -1 -83 9 -43 9 -116 25 -163 35 -47 10 -130 28 -185 41 -55 13 -110
24 -122 24 -34 0 -34 13 0 56 18 23 40 52 49 65 10 13 41 57 70 96 29 40 75
104 102 142 43 61 52 69 69 60 14 -8 17 -17 12 -37z"/>
<path d="M917 7863 c-3 -5 -9 -24 -15 -44 -8 -30 -7 -39 8 -52 9 -8 30 -14 44
-14 15 0 38 -6 51 -13 20 -11 26 -10 41 4 9 9 29 20 45 23 22 4 29 11 29 28 0
18 -7 24 -37 29 -21 3 -57 6 -80 6 -33 0 -43 4 -48 20 -6 20 -29 27 -38 13z"/>
<path d="M184 5858 c-14 -6 -24 -23 -28 -47 -12 -76 11 -98 89 -87 37 6 47 3
69 -17 16 -15 28 -39 32 -68 10 -60 29 -86 67 -92 47 -7 67 7 67 48 l0 35 53
0 c51 0 54 1 70 35 9 20 17 42 17 51 0 20 -44 36 -109 40 -29 2 -63 10 -75 17
-12 8 -35 17 -52 21 -17 4 -40 15 -51 25 -49 46 -105 61 -149 39z"/>
<path d="M2610 5640 c-33 -20 -5 -198 39 -249 25 -29 29 -27 41 19 6 23 24 63
40 90 16 28 27 57 24 65 -5 12 -113 85 -125 85 -2 0 -11 -5 -19 -10z"/>
<path d="M713 5204 c-28 -29 -63 -56 -79 -60 -39 -10 -74 -33 -74 -49 0 -8 16
-19 35 -25 20 -7 53 -27 73 -46 62 -57 81 -46 101 56 7 36 17 69 22 75 15 15
10 55 -9 79 l-17 23 -52 -53z"/>
<path d="M38 4546 l-38 -10 0 -98 0 -98 53 0 c28 0 70 5 92 10 22 5 105 12
185 16 158 7 170 11 170 65 0 34 -5 37 -94 60 -48 12 -97 17 -151 14 -63 -3
-89 1 -125 16 -24 11 -47 23 -50 27 -3 4 -22 3 -42 -2z"/>
<path d="M1393 4364 c-18 -9 -33 -22 -33 -29 0 -23 -68 -46 -140 -48 -47 -1
-74 -7 -84 -17 -18 -19 -49 -145 -41 -169 7 -23 34 -41 93 -64 41 -16 44 -16
81 3 23 11 50 38 67 64 16 25 35 48 42 51 8 3 48 8 90 11 43 4 84 8 92 10 8 1
21 3 29 3 9 1 11 7 6 19 -4 9 -11 41 -16 71 -4 29 -12 58 -17 63 -5 5 -31 15
-58 22 -27 8 -56 16 -64 20 -8 3 -30 -2 -47 -10z"/>
<path d="M5187 4213 c-4 -6 -6 -37 -4 -70 3 -87 -29 -138 -63 -98 -12 15 -10
72 4 110 5 11 -1 7 -13 -10 -11 -16 -21 -45 -21 -63 0 -18 -4 -31 -9 -28 -11
7 -21 -17 -21 -50 0 -28 15 -31 29 -6 9 15 12 15 20 2 15 -22 -8 -42 -41 -38
-26 4 -28 2 -28 -30 0 -20 -6 -43 -14 -51 -7 -9 -23 -45 -36 -81 -12 -36 -28
-79 -35 -95 -12 -27 -26 -80 -41 -150 -2 -11 -11 -25 -19 -31 -8 -6 -15 -17
-15 -25 0 -9 3 -10 8 -3 10 15 72 24 72 10 1 -6 13 4 29 22 15 17 33 32 39 32
7 0 12 11 12 25 0 16 6 25 15 25 8 0 15 7 15 15 0 8 9 20 20 27 11 7 20 20 20
28 0 19 30 67 64 103 14 15 26 38 26 51 0 13 7 29 15 36 9 7 13 15 11 18 -3 3
3 17 14 32 11 16 20 33 20 39 0 6 6 11 13 11 7 1 5 6 -6 14 -15 12 -15 15 -2
26 8 7 15 20 15 29 0 9 5 22 11 28 8 8 8 17 -1 33 -9 16 -9 24 -1 29 7 4 0 19
-19 39 -27 30 -48 43 -35 22 3 -5 3 -10 -2 -10 -13 0 -30 14 -35 30 -3 9 -7
10 -11 3z"/>
<path d="M4687 3465 c-3 -16 -9 -59 -12 -95 -11 -110 -33 -227 -49 -259 -9
-16 -16 -37 -16 -46 0 -8 -7 -15 -15 -15 -8 0 -15 -7 -15 -16 0 -13 7 -15 43
-9 43 7 67 26 67 54 0 26 38 81 57 82 10 1 -2 6 -27 13 -39 11 -45 16 -43 37
1 13 7 74 13 135 12 112 10 180 -3 119z"/>
<path d="M200 1319 c0 -5 -9 -9 -19 -9 -11 0 -21 -5 -23 -11 -2 -5 -38 -13
-81 -16 l-77 -6 0 -638 0 -639 168 0 c165 0 169 0 180 23 14 29 21 76 12 79
-5 2 -4 28 1 58 5 32 5 209 -1 425 -5 204 -10 414 -10 468 0 64 -4 96 -10 92
-6 -4 -7 -11 -4 -17 4 -6 3 -8 -3 -5 -5 3 -8 21 -7 39 l3 33 -11 -32 c-11 -34
-28 -44 -28 -18 0 8 -4 15 -10 15 -5 0 -10 -7 -10 -15 0 -8 -4 -15 -10 -15 -5
0 -10 8 -10 18 0 10 -3 13 -8 6 -10 -16 -99 -28 -107 -14 -11 17 0 22 55 28
43 4 50 8 50 26 0 17 2 18 10 6 9 -13 11 -13 20 0 9 13 11 13 21 0 8 -11 12
-12 16 -2 2 6 9 10 14 6 5 -3 9 0 9 5 0 6 -5 11 -10 11 -6 0 -20 16 -31 35
-23 38 -45 47 -36 15 3 -11 1 -23 -4 -26 -5 -3 -9 -2 -8 3 4 24 -4 33 -32 33
-29 0 -30 1 -13 17 13 13 19 14 22 5 4 -13 32 -17 32 -4 0 4 -11 12 -25 19
-14 6 -25 7 -25 2z"/>
<path d="M1460 894 c-46 -11 -218 -11 -324 2 -42 4 -57 3 -52 -5 4 -6 22 -11
39 -11 46 0 77 -10 77 -25 0 -8 17 -14 45 -17 39 -3 43 -1 29 9 -10 7 -15 15
-13 18 3 3 15 -4 27 -15 25 -24 72 -27 72 -5 0 8 5 15 10 15 19 0 23 -30 7
-53 -8 -13 -17 -37 -20 -53 -4 -28 -4 -28 -6 4 -1 30 -3 32 -16 18 -8 -8 -15
-28 -15 -44 0 -44 -11 -46 -46 -8 -50 53 -71 102 -39 90 8 -4 15 -1 15 5 0 6
-12 11 -26 11 -14 0 -23 -4 -20 -9 3 -4 -3 -16 -14 -26 -24 -21 -26 -45 -5
-45 8 0 15 7 15 15 0 8 4 15 9 15 5 0 9 -14 9 -31 -1 -31 -2 -31 -42 -25 -44
8 -66 21 -66 42 0 24 -19 15 -35 -16 -20 -39 -19 -57 5 -63 11 -3 20 -12 20
-21 0 -9 -8 -16 -20 -16 -17 0 -20 -7 -20 -40 0 -25 5 -40 13 -40 8 0 7 -4 -3
-10 -21 -14 -28 -12 -32 7 -2 9 -4 -13 -5 -50 -2 -80 -9 -107 -29 -107 -16 0
-19 -16 -5 -25 11 -6 3 -75 -10 -89 -4 -5 -6 -28 -2 -51 4 -31 1 -46 -12 -58
-14 -14 -16 -28 -10 -76 5 -46 3 -61 -9 -74 -9 -8 -16 -20 -16 -26 0 -8 99
-11 319 -11 l318 0 -3 213 c-1 118 -7 240 -13 273 -5 32 -13 103 -16 157 -4
54 -11 113 -16 130 -5 18 -9 48 -10 67 -1 61 -8 67 -59 54z"/>
</g>
</svg>
